<mxfile host="app.diagrams.net" modified="2024-02-01T14:06:42.521Z" agent="Mozilla/5.0 (Windows NT 10.0; Win64; x64) AppleWebKit/537.36 (KHTML, like Gecko) Chrome/120.0.0.0 Safari/537.36" etag="XxDiGlcO3mmvoGEK_7lr" version="22.1.22" type="github">
  <diagram name="Page-1" id="JCHEIruAJrnFE4wf-b7R">
    <mxGraphModel dx="1434" dy="738" grid="1" gridSize="10" guides="1" tooltips="1" connect="1" arrows="1" fold="1" page="1" pageScale="1" pageWidth="827" pageHeight="1169" background="#ffffff" math="0" shadow="0">
      <root>
        <mxCell id="0" />
        <mxCell id="1" parent="0" />
        <mxCell id="4w8I4MJi7LQIZc6itaXW-21" style="edgeStyle=orthogonalEdgeStyle;rounded=0;orthogonalLoop=1;jettySize=auto;html=1;enumerate=1;enumerateValue=3;startArrow=classic;startFill=1;" parent="1" target="4w8I4MJi7LQIZc6itaXW-14" edge="1">
          <mxGeometry relative="1" as="geometry">
            <mxPoint x="401" y="320" as="sourcePoint" />
          </mxGeometry>
        </mxCell>
        <mxCell id="4w8I4MJi7LQIZc6itaXW-27" style="edgeStyle=orthogonalEdgeStyle;rounded=0;orthogonalLoop=1;jettySize=auto;html=1;exitX=1;exitY=0.5;exitDx=0;exitDy=0;exitPerimeter=0;enumerate=1;enumerateValue=5;" parent="1" target="4w8I4MJi7LQIZc6itaXW-2" edge="1">
          <mxGeometry relative="1" as="geometry">
            <mxPoint x="440" y="359" as="sourcePoint" />
          </mxGeometry>
        </mxCell>
        <mxCell id="4w8I4MJi7LQIZc6itaXW-2" value="" style="sketch=0;points=[[0,0,0],[0.25,0,0],[0.5,0,0],[0.75,0,0],[1,0,0],[0,1,0],[0.25,1,0],[0.5,1,0],[0.75,1,0],[1,1,0],[0,0.25,0],[0,0.5,0],[0,0.75,0],[1,0.25,0],[1,0.5,0],[1,0.75,0]];outlineConnect=0;fontColor=#232F3E;fillColor=#7AA116;strokeColor=#ffffff;dashed=0;verticalLabelPosition=bottom;verticalAlign=top;align=center;html=1;fontSize=12;fontStyle=0;aspect=fixed;shape=mxgraph.aws4.resourceIcon;resIcon=mxgraph.aws4.s3;" parent="1" vertex="1">
          <mxGeometry x="520" y="320" width="78" height="78" as="geometry" />
        </mxCell>
        <mxCell id="4w8I4MJi7LQIZc6itaXW-3" value="" style="sketch=0;outlineConnect=0;fontColor=#232F3E;gradientColor=none;fillColor=#E7157B;strokeColor=none;dashed=0;verticalLabelPosition=bottom;verticalAlign=top;align=center;html=1;fontSize=12;fontStyle=0;aspect=fixed;pointerEvents=1;shape=mxgraph.aws4.parameter_store;" parent="1" vertex="1">
          <mxGeometry x="363.08" y="120" width="76.92" height="80" as="geometry" />
        </mxCell>
        <mxCell id="4w8I4MJi7LQIZc6itaXW-19" style="edgeStyle=orthogonalEdgeStyle;rounded=0;orthogonalLoop=1;jettySize=auto;html=1;enumerate=1;enumerateValue=1;" parent="1" source="4w8I4MJi7LQIZc6itaXW-4" edge="1">
          <mxGeometry relative="1" as="geometry">
            <mxPoint x="200" y="360" as="targetPoint" />
          </mxGeometry>
        </mxCell>
        <mxCell id="4w8I4MJi7LQIZc6itaXW-4" value="" style="sketch=0;outlineConnect=0;fontColor=#232F3E;gradientColor=none;fillColor=#232F3D;strokeColor=none;dashed=0;verticalLabelPosition=bottom;verticalAlign=top;align=center;html=1;fontSize=12;fontStyle=0;aspect=fixed;pointerEvents=1;shape=mxgraph.aws4.user;" parent="1" vertex="1">
          <mxGeometry x="42" y="322" width="78" height="78" as="geometry" />
        </mxCell>
        <mxCell id="4w8I4MJi7LQIZc6itaXW-6" value="" style="dashed=0;outlineConnect=0;html=1;align=center;labelPosition=center;verticalLabelPosition=bottom;verticalAlign=top;shape=mxgraph.webicons.wordpress_2;fillColor=#35E2EE;gradientColor=#0E4D99" parent="1" vertex="1">
          <mxGeometry x="122" y="120" width="80" height="80" as="geometry" />
        </mxCell>
        <mxCell id="4w8I4MJi7LQIZc6itaXW-10" value="User" style="text;html=1;strokeColor=none;fillColor=none;align=center;verticalAlign=middle;whiteSpace=wrap;rounded=0;" parent="1" vertex="1">
          <mxGeometry x="40" y="400" width="80" height="40" as="geometry" />
        </mxCell>
        <mxCell id="4w8I4MJi7LQIZc6itaXW-11" value="AWS Python SDK" style="text;html=1;strokeColor=none;fillColor=none;align=center;verticalAlign=middle;whiteSpace=wrap;rounded=0;" parent="1" vertex="1">
          <mxGeometry x="362" y="398" width="78" height="40" as="geometry" />
        </mxCell>
        <mxCell id="4w8I4MJi7LQIZc6itaXW-12" value="S3 Bucket" style="text;html=1;strokeColor=none;fillColor=none;align=center;verticalAlign=middle;whiteSpace=wrap;rounded=0;" parent="1" vertex="1">
          <mxGeometry x="520" y="398" width="78" height="40" as="geometry" />
        </mxCell>
        <mxCell id="4w8I4MJi7LQIZc6itaXW-14" value="Parameter Store" style="text;html=1;strokeColor=none;fillColor=none;align=center;verticalAlign=middle;whiteSpace=wrap;rounded=0;" parent="1" vertex="1">
          <mxGeometry x="362" y="200" width="78" height="40" as="geometry" />
        </mxCell>
        <mxCell id="4w8I4MJi7LQIZc6itaXW-16" value="AWS Cloud" style="points=[[0,0],[0.25,0],[0.5,0],[0.75,0],[1,0],[1,0.25],[1,0.5],[1,0.75],[1,1],[0.75,1],[0.5,1],[0.25,1],[0,1],[0,0.75],[0,0.5],[0,0.25]];outlineConnect=0;gradientColor=none;html=1;whiteSpace=wrap;fontSize=12;fontStyle=0;container=1;pointerEvents=0;collapsible=0;recursiveResize=0;shape=mxgraph.aws4.group;grIcon=mxgraph.aws4.group_aws_cloud_alt;strokeColor=#232F3E;fillColor=none;verticalAlign=top;align=left;spacingLeft=30;fontColor=#232F3E;dashed=0;" parent="1" vertex="1">
          <mxGeometry x="320" y="80" width="320" height="400" as="geometry" />
        </mxCell>
        <mxCell id="fl53kbqJCaCXRiY0qN3b-2" value="" style="outlineConnect=0;dashed=0;verticalLabelPosition=bottom;verticalAlign=top;align=center;html=1;shape=mxgraph.aws3.android;fillColor=#FFD44F;gradientColor=none;" parent="4w8I4MJi7LQIZc6itaXW-16" vertex="1">
          <mxGeometry x="42" y="240" width="78" height="80" as="geometry" />
        </mxCell>
        <mxCell id="4w8I4MJi7LQIZc6itaXW-17" value="Server contents" style="points=[[0,0],[0.25,0],[0.5,0],[0.75,0],[1,0],[1,0.25],[1,0.5],[1,0.75],[1,1],[0.75,1],[0.5,1],[0.25,1],[0,1],[0,0.75],[0,0.5],[0,0.25]];outlineConnect=0;gradientColor=none;html=1;whiteSpace=wrap;fontSize=12;fontStyle=0;container=1;pointerEvents=0;collapsible=0;recursiveResize=0;shape=mxgraph.aws4.group;grIcon=mxgraph.aws4.group_on_premise;strokeColor=#7D8998;fillColor=none;verticalAlign=top;align=left;spacingLeft=30;fontColor=#5A6C86;dashed=0;" parent="1" vertex="1">
          <mxGeometry x="80" y="80" width="160" height="200" as="geometry" />
        </mxCell>
        <mxCell id="4w8I4MJi7LQIZc6itaXW-15" value="WordPress API" style="text;html=1;strokeColor=none;fillColor=none;align=center;verticalAlign=middle;whiteSpace=wrap;rounded=0;" parent="4w8I4MJi7LQIZc6itaXW-17" vertex="1">
          <mxGeometry x="40" y="120" width="78" height="40" as="geometry" />
        </mxCell>
        <mxCell id="OlPVgnLOYZOIrK54OXrC-1" style="edgeStyle=orthogonalEdgeStyle;rounded=0;orthogonalLoop=1;jettySize=auto;html=1;exitX=0.5;exitY=0;exitDx=0;exitDy=0;entryX=0.5;entryY=1;entryDx=0;entryDy=0;startArrow=classic;startFill=1;enumerate=1;enumerateValue=4;" parent="1" source="fl53kbqJCaCXRiY0qN3b-1" target="4w8I4MJi7LQIZc6itaXW-15" edge="1">
          <mxGeometry relative="1" as="geometry">
            <Array as="points">
              <mxPoint x="242" y="300" />
              <mxPoint x="160" y="300" />
              <mxPoint x="160" y="240" />
            </Array>
          </mxGeometry>
        </mxCell>
        <mxCell id="fl53kbqJCaCXRiY0qN3b-1" value="" style="shape=image;verticalLabelPosition=bottom;labelBackgroundColor=default;verticalAlign=top;aspect=fixed;imageAspect=0;image=data:image/png,iVBORw0KGgoAAAANSUhEUgAAAgAAAAIACAYAAAD0eNT6AAAACXBIWXMAAAsTAAALEwEAmpwYAAAgAElEQVR4nO3dCZxcZZno/w6bCBFRBEz6nOoQozjxEkhOdUBFuTAsDgrOwETUQUbEG2VG3AKkzunMFIussigyIIM6CqNoo0D6nO4QEXrYkj7VHRIgEcIie9hJAmRP+r3vqQ5OCNmq+5zzvG/V7/v5/D4B7/3/L+mq932e3qqamgAAAAAAAAAAAAAAAAAAAAAAAAAAAAAAAAAAAAAAAAAAAAAAAAAAAAAAAAAAAAAAAAAAAAAAAAAAAAAAAAAAAAAAAAAAAAAAAAAAAAAAAAAAAIABY8vtw/crRe9L8qZ2FIqlaHRSaxAdMKEUedXaOg8rtkWHVws6j/faoknFUnjsX/83ned3fvKv//d146dFf/PW/7+SxpVn7pX8vyX99wUAoG584oxb3jPR7xrrtXUcXAw6jtED9yueH53mBeG/FYPwMi+IfqH//Sb9z3d4fjhX/+9PFP1ocTGIVO750Tr952v6v+cv+r9rnv7vuVP/94T6v+3X+v/sat2F+n+fqv/3U1vbwn/S//zZZBlpPT36YFO5vJ30xxoAgFwkn5m3Tpv+sYHPvqPJejCepYfnNQNDM+pLhqnIIJfrNf13X6A/BrfpP69LFoaiH34n+apEdQEqRaO9yX07Sj9uAABs0aRJ7dt7bV0f8krh0XqAfV9/JvxTPdS69XB7Rg/7NQYMXPtKvsrgh08mS0LyVQX9cZziBdHnk6+SjDmt613SjzkAoIEkn8lPCLoOag2ir+ohf4Ee8H/QA2q+HlCrxAdmI/XWchBEf6ouW6XodM/v+Pvkqyxjy+07ST9PAAAWq/5AXfLl6ORL00F4XfIla/HBR1st+YpL9dsL1W8tJN9W6DiYpQAAsEnjpszc1St1HKmHxtnV78v74SLpQUYpNvDDkjd6fnTK+DNuGSn9fAMACKkOfL/zCC+IztOfMd5bDMLV4kOKcqv6mwv6sU9+nkD6uQgAyFjy/WH9GeA0PezvYeDTBvXpZeDbB/hde0o/RwEAaSiXt2stdXxcX/AX6cH/iAGDhoyuuhTeXPQ7DpF+6gIABmHi1HD/oh/9hO/j02DzgqhSbOs44ZBy9w7Sz2cAwBYMfE8/OkV/FtcjPTyofkpebTF5NUNelAgADFOcNmPf9S8Ss1R6WFD9pheBhfp5dpz08x0AGt7Etun7VF9Kl1fZozzzo7i1Lfq09PMfABoOg5+MyI/aW0s37SF9HgCg7iVvQasH/+VeEK0Vv/yJBnoueW8C6bMBAHVrQqnzc/qyfcqAC5/oHenF9LdeueMD0ucEAOrGuPLMvbwg/J30BU+0tfQS8HTyJlHSZwYArFec2jU+ebc36YudaFsbeBOiaKr02QEAa+nP+k/Sl+kK6QudaDDpJeCG5GdWpM8RANijXN5OX54/kr7AiYaaXmB7k29hSR8pALCAGpa8oI/0xU2UVnqZfXx8afoY6ZMFAEbTnzH9UPrCJko7Lwifbw2iA6TPFwAYSQ//i6UvaqIMe21CKfKkzxkAGKVY6jhZ8nKedPn/qAtueVDd2POkmrXwJbXgmcXqz88uUQ889Zq666EX1PV3Pa7+rX2u+swFt0kPEbI5P3rZ8zs+Kn3eAMAIrdOmf0xfjMvyvoyP0sP8mj8tVM++ukzV4oGnF6vzb3lAHVyeIT9QyLq8IHxmfFvUIn3uAEDUIeXunb0gmpfnBXzoOTPVDbOeUKvWrKtp8G/s1TdXqUuiBerAaZ3iQ4XsyvOjR/jtAAANzfPD/8jz4p1yfa969Y2VQxr8G1u4aKk64cd3ig8Vsiu9+P6PXoB3kD6DAJC7iX7X2Lzeza+1LVK/uvMx1d+f6uz/qxWr16q2394nPlTIui6SPocAkLuiH92axyU7cVqn6rzv2Wwm/waS5SL5loABQ4WsKezX5+A46bMIALnxguizeV2yv5v9RObDf0MXd8w3YLCQLemz8Dq/GQCgYSQvkZrH5Xp5559zHf6Jdev61Td/Nlt8sJA96SVgVvIS2NLnEgAy5ZWiA/O4VE+88m61eu3QftJ/sF5aukId/oM/ig8Wsie9FJ8qfTYBIFNFP/pV1pfpxLZO9eDTi0WG/1tu7n1afKiQPekFYOlBQdgsfT4BIBOtpZv2yOMtfpNX7ZO2rr9fffknd4kPFrKqG6XPKABkIvkyZ9aXaPIrf4+/+Lr0/K+67cFF0gOFbKstOlz6nAJA6vQC0JX1BTr52tnSc/+vkh8IPIr3D6Aaqv5AIADUk4O+1/7uPF7z/+bKU9Jz/20u5bUBqMYmBOFR0ucVAFIzodT5uTwuz0WLl0vP/LeZ9chL4gOF7Cr5NdmmJjVM+swCQCqKQXhF1hfnsT+8Q3rev8PyVWurr0YoPVTIrlpL0WekzywApKLoR3HWl+b3ruuVnveb9PeX3CE+UMiy/PAW6TMLAEPmTe7b0Qui5Vlfmpd1LpCe9Zt02n/F8gOFrCp5oywvmDFC+uwCwJC0BtEBeVya197+iPSs3yT/Bt4pkAbVGdJnFwCGxPOjU/K4MK+/63HpWb9JZ/1+nvQgIQvz/PBhfhgQgNX0ZXZJHhemqV8BKP1mjvgwITtrDTqL0ucXAAZNfybz+zwuy+R37k106s97xAcJWZofBtLnFwAGLa+3//3udRXpWb9Jn7v4dvlBQnbmR93S5xcABq0YhC/lcVkeowetaV5fsbr67oTig4TszI9WjS23D5c+wwBQM6/csYteAPrzujAXvWbWKwF2L3hefoiQ1XlB9FnpcwwANZvYNn2fPC/L381+Qnrmv80PbrpffICQ5fnRhdLnGABq5gUdE/K8LP/5qnukZ/5frVqzTh16zkz5AUJW5wXRdOlzDAA1m9DWeVjeF+b9T70mPfur/hA/JT48yP48P3pE+hwDQM2KQefxeV+Y3/mV/G8DJJ/9f573AKAU8oJo7ZjTut4lfZYBoCZ5vQrgxt310IuiC8Avuh8VHxxUR/nh/5E+ywBQE/3Zy7clLszkd++XLl8tMvwff/F1dXB5hvzQoLpJn6PPS59lAKiJ54dTpC7NKdf3qnX9/bkO/2Ur16gv/OhO8YFB9ZUXhCdJn2UAqInnRyXJi/PC6Q/mNvzXrO3nrX8pk/QC8C3pswwANdELwDTpy/PijvmZfyVgxeq16ru/qogPCqrTeE8AALbx/PAs8ctTd+av+9SbK9dkMvwXLV6uTrrqHvG/I9Vz4QXSZxkAaqI/c/mB/OU50D9c2q16H38ltcGffFEhnPOMOuxcXuyHss0LwiulzzIA1MQLovOkL88Na22LVOk3c9SjL7w+pOFfeexldco194r/fahhukr6LANATUxbAN4qWQS++bPZ1c/gX31j5TYN/WdfXaZ+fc9f1Jd/cpf4fz81XCwAAOxi6gKwYckykPzqnn/Dferq2x5W1931ePVlfH9552PqilsfUqf/d5865oe3i/93UkPHAgDALjYsAEQWxAIAwC4sAESpxAIAwC4sAESpxAIAwC4sAESpxAIAwC4sAESpxAIAwC4sAESpxAIAwC4sAESpxAIAwC4sAESpxAIAwC4sAESpxAIAwC4sAESpxAIAwC4sAESpxAIAwC4sAESpxAIAwC4sAESpxAIAwC4sAESpxAIAwC4sAESpxAIAwC4sAESpxAIAwC4sAESpxAIAwC4sAESpxAIAwC4HlW99f7EUjSajO92AAUcsAACAPHml8J8NGHDEAgAAyBMLgBWxAAAA0sUCYEUsAACAdLEAWBELAAAgXSwAVsQCAABIFwuAFbEAAADSxQJgRSwAAIB0sQBYEQsAACBdLABWxAIAAEgXC4AVsQAAANLFAmBFLAAAgHSxAFgRCwAAIF0sAFbEAgAASBcLgBWxAAAA0sUCYEUsAACAdLEAWBELAAAgXSwAVsQCAABIFwuAFbEAAADSxQJgRSwAAIB0sQBYEQsAACBdLABWxAIAAEgXC4AVsQAAANLFAmBFLAAAgHSxAFgRCwAAIF0sAFbEAgAASBcLgBWxAAAA0sUCYEUsAACAdLEAWBELAAAgXSwAVsQCAABIFwuAFbEAAADSxQJgRSwAQCM4pNy9Q7HtZtfzOz/ptUVf8vzwzKIf/UTX7vnRbfrPbn0h9HlB9KDucaKhVAzClwwYcMQCADSWZNi3Tpv+MS8ITyr64Y/1ZXyPHvDLDLhwiMicWACAelAd+H44pfrZfBCuNOByISKzYwEArFQub+f5nUfogX+NPshPGXCZEJFdsQAANilOm7Gv/kz/LD34/2LABUJE9sYCAJjOm9y34/rv58824NIgovqIBQAw1ZjTut6VDH792f4jBlwWRFRfsQAAphlbbh+uh37JC6IXDLgkiKg+YwEAzKGGeW3RpCI/1EdE2ccCAJjACzomFP3obgMuBSJqjFgAAEkTy127VX+Vz4/WGXAhEFHjxAIASPFK0YH6ED5qwEVARI0XCwCQt+Sler0gmloMwtUGXAJE1JixAAB5OnDqjFH8Pj8RGRALAJCXCUHXQfxqHxEZEgsAkIfk1/v08F9uwKEnIkpiAQCypYZVv9/PT/kTkVmJLgCq4r6qKs5r5uY+o1uo/7lPxW63rlP/+7X638/Qfx6rKiP3VX3ejpIfQ5is+o590c8NOOhERBsnuwDEbr8epMry1ujm6aXgUtXbfLSav+dwyY8pjKGG6c/6rzbgkBMRbSoWgLSLndW6u/U/f1f1jfiA5McXYtQwzw//w4ADTkS0uVgAsl0GVqmKE6q4MEl1N+0g+bFGbpLv+YdXGnC4iYi2FAtAfsvAY6rSfKJSTdtJfsyRMc+PzjfgYBMRbS0WgNxzFlS/IqCahkl+7JGBgXfyC/sNONhERFuLBUDuKwL3qtktfyP58UeKJpQir+hHyww41ERE2xILgOxXA1aouDBVtTdtL/k4YIi8YMYIz4+eNeBAExFtaywAJhQ796g5zhjJxwKDNOa0rnd5fthrwGEmIqolFgBzel31FD4r+XhgEPQhusiAg0xEVGssAGa1VvU635J8TFCDYlv0CS+I1hpwkImIao0FwMRi5zJ+LsBw46bM3NXzo0cMOMRERIOJBcDYnF/ymgEGKwbhTw04wEREg40FwOx+xusFGGhCW+dh/L4/EVkeC4Dpxc6PJB8jbGTSpPbti374gAGHl4hoKLEA2FDstkk+TtiA54enGnBwiYiGGguADcXuOhUXPif5WEGbWO7azQuiFww4uEREQ40FwJ6S1wkYK/l4NTx9YC4x4NASEaURC4BNxe7Dqm/0eyUfs4Y1sW36PkU/WmXAoSUiSiMWANuKneskH7OGlRwWAw4sEVFasQBYWfNxko9bwxlXnrmXF0TLDTiwRERpxQJgY7H7krp3770kH7uGUvSjcww4rEREacYCYGuxe4PkY9cwvHLHLnoBeNmAw0pElGYsADbX23y05OPXEIp++B0DDioRUdqxANhc7Dyk+rwdJR/DOqeG8YY/RFSnsQDYXlz4tuRjWNeSt/s14JASEWURC4D1Oa+peOQeko9j3Sr60dUGHFIioixiAaiHeMOg9I0tt+/kBdErBhxSIqIsYgGoi5wVao47UvKxrDueH/6jAQeUiCirWADqpdj9oeRjWXf0Z//TDTigRERZxQJQL8Xum+q+D+4p+XjWjbHl9uG87j8R1XfhZZL3LAtA2kuAc57k41k3ikHHMfKHk4gou7wgPFvynmUBSH0BWKLm7zlc8jGtC/pgXCl9OImIMq0UnS55z7IAZLEEuN+UfEzrQtEPHxM/nEREGeb50Tck71kWgCxy5ivVNEzycbXaxLbp+0gfTCKirPP8zi9L3rUsABnV435K8nG1mj4Y/yJ9MImIsm5CEB4ledeyAGQU7xQ4ePpg3Cx9MImIMq8UjZa8a1kAsloAnFW8PPCgqGHFIHxJ/GASEWVauHLSpPbtRW9bFoAMlwD3VMnH1krjp0V/I38wiYiyzfOj+dL3LQtAlguAc4/042sdL+j8uvTBJCLKOr0A3CR937IAZLkAJB/bgui3eKzjBdEvpA8mEVHW6QXgfOn7lgUg6yXA+Tfpx9gq+mA8Kn0wiYiyr/PvpO9bFoCscxZIP8bWONCfvrf8oSQiyjbPD9dMLHftJn3nsgDk0ch9pR9nK7QG4T9IH0wioszzw9nS922CBSCPnDOkH2cr6INxkfjBJCLKOBO+/59gAcghfhtg2xSD8A7pg0lElHWe33mE9H2bYAHIYwFw16nZ++wt/VibrVzezvPDpdIHk4go28KXvMl9O0pfuarP21F8ODZKPc4p0o+30VqnTf+Y/MEkIsq68Arp+zaRvG+9+GBsmJx26cfbaMVSx8nyB5OIKNu8UnSg9H2bSF6rXn4wNkyvKNW0nfRjbix9MK6SPphERJnmh48l73cifd8m1OyWUQYMxsYpdovSj7mxPD/sFT+cREQZ5gWhMa8MpypOq/hQbKRityT9mBsp+YGY5J2xpA8nEVFm+dGyA/yuPaXv27eoSvPfiQ/Fhsq5XfoxN9LEqeH+4oeTiCjDPD+6XPqu3ZDqcU+SH4oNVOysVLOcd0s/7sbxgvAk6cNJRJRd4WpvakdB+q7dkIrds8SHYqMVO5+WftyNU/SjS+UPKBFRNunP/n8ufc9uTFWcX4kPxEYrdtukH3fjFP3wdukDSkSUTeFKr63rQ9L37MaSl6gVH4iN163Sj7txin70svwhJSLKovBc6Tt2Y0o1DdMLwGIDBmKD5SxV7U3bSz/+xph4Zpcjf0CJiDLpKa/csYv0PbsxXgNAspbx0o+/MbxSx5EGHFIiogzqPF76jt0UPYiOlR+EDdt3pB9/Y3hB9G35Q0pElHJ+ZOz3e1XsnGfAIGzMYudG6cffGEVeApiI6q7wpfFn3DJS+n7dHFVx7hIfhI1a7CySfvyNobfkbvnDSkSUVmF/Meg4Rvpu3Rz1yJh36QVghfggbOhGutLPAyN4Qfi8/IElIkqtS6Tv1S1RPYXD5Adgg9db+Efp54G4/cs3727AYSUiSiUviCpjy+07Sd+tW6I/+79UfAA2erF7sfTzQFyx1NEqfWCJiNLIC8InvGDGCOl7dWtU7DwkPgDpTunngbhWP/qC9KElIhpq+jP/Vzy/46PSd+rWqHjkRwwYfhS7b6ruph2knw+i9KGZKn1wiYiGkueHK7y2joOl79NtoSpOWXz40UA9zftLPx9EFf3oaunDS0Q06Pxolf5E5vPSd+m20gvAn8UHHw0UN/8/6eeDqOSFMsQPMBHRYPKjZa2l6DPS9+i2Uj0FT3zo0QY5V0s/J0R5QbhQ/BATEdWaHy32/M5PSt+htVCx81P5oUcbNEv6OSFIDUu+dyZ+kImIaskPF3nTOveTvkFroebvObz6TnTyQ4/eKvlBQNW0nfRzQ0Rr6aY9xA8yEVENJb/nf+DUGaOk789a6WHzTfGBR5to5L7Szw0RrdOmf0z6MBMRbWueH11j+ov8bEry/vN62DwiP+xoE50g/fwQ0ep3/K30gSYi2lr6s/7XvbZokvSdOVgqLkwyYNDRpoqd86WfHyL0gfqS9MEmItpSXhCG49uiFun7crCUahqmKk6f+KCjzSwAbpf0c0SE54dTpA83EdEmS37QLwhPkr4nh0pVmo8TH3K0pZ6Rfo6I0IfsIvFDTkS0YckL+/jR5Z8445b3SN+RQ5X8hLkeMPcbMORoc8Vuv+oZs5v0cyV3xSD8mfhhJyJKqr6iX3id19b1Iem7MS2q4pwsPuBoG3JapZ8rudOH7kbxQ09Ejd3AZ/zXTDyzy5G+E9Ok7tnjPSp2FskPN9p6ha9IP19yVwzCP4offiJqyPRn+wuSNyMbV565l/RdmIXk/eblBxttU434mwB6AeiRvgSIqHHSQ/8Z/Rn/pba9il+tVJ+znx4qq8QHG21rN0k/Z3Ln+eHD0hcCEdVxfvSG50e3JZ/pTyhFXvLy49L3XtaqP/gXO/caMNRoW4udh6SfN7lLfs1G/IIgIvvzo2X6s/v79KC/Qf97udjWccLEqeH+kya1by99z+VN9brfEx9oVOsCsFp1N+0g/dzJVTEIl4hfHNQYDfyE90LdDP28+6n+93P0sPh2a1v4T8krvCVv6Vpsiw4n80vegW+8P31csRSN3q8Uvc+b3Lej9F1mChW7H9MDZbn4QKPamzPK2hebGpRkaxcfDFR/vfVlXz86v9WPvtBa6vxIU7ncmO+4hYahult2VvzOv8U5h0g/h3KlPxNbLT4syPo8P1yju1N3pv4Mf+Ih5e7G+lIa0FT9nf+r5YcYDWEBOFn6OZQjNUx6cJDN6eXRDyP92f6JyZeBpZ/NgCRVaT5RfoDRkIrds6WfR7lJ3lJTfoiQdfnhA0W/819bSzftIf0cBkygKi3jFd/3t7/YuU76uZSbcVNm7io+TMiKki/x68H/m+SHv6Sft4BJ1Bx3pP7M8Wnx4UUp5Nwl/XzKzcRy127Sg4UMr/pDouEVB06dMUr6+QqYRs3fc7geHHPlBxelUuw8Kf2cyo1X7thFfMCQoYWrk9dm94IZI6Sfp4CJ1PyxO+mhcav40KI0F4CVSjXV/QtVVfEzAPTOwv7kS/18xg9snmpv2l4Pi9+KDyxKv1nO+6WfX7lIXqFLfuCQKXl+OHeCH35K+nkJmKw6/CvOL8UHFWVTT2Gs9HMsN9XP+AwYPiQ4+INoefI67Y34kq1ALQa+7O/8TnxIUZYLwGHSz7PcJC/PKj2ASDA/uvvAaeGHpZ+HgOnUvL131cN/pviAomyLnX+Sfq7lphiEb4oPIRIo7Nef9Z/HZ/3A1iXfF9bDYbb4cKI8FoAp0s+33HhB+Lz8MKI804P/Fa8UHi393ANskLxBjIrdh8UHE+W1AJwv/ZzLjedHj0gPJMp1+Fcmtk3fR/p5B9hA9TQfqirO8+JDiXLMuUr6eZcbPRT6pIcS5Tb8f8TbtgJbl/wuuIoLU/VAWCs/kCjnfi39/MtN0Y+6pQcTZV31+/1TpZ9rgA1U34gP6CEww4BBRBLFbqf0czA3ejBMlx9QlFX68V3rBZ1fl36eATZQfe7Begg8Iz6ESHABcO6Rfh7mxgvC66SHFGU2/JcXS+Gx0s8xwHRqlvNuVXEuVHzJn2L3QennY26KQXiZ9KCiLAqX8Kp+wNapSuFw/VnfY+KDh8wodp+Wfk7mxvOjkvywojRLPvNn+ANbpj/rb07e/1184JBhOS9KPzdzUyx1nCw9sCjV4b+26EfHST+vAFOpuS2768F/nv5Mb5n8sCHjip0l0s/R3CQvCCM9tCitwn7Pj06Rfk4BJlLz9xy+/lf7XhUfMmRyy6Wfq7lpDTqL8oOLUuoM6ecTYJrqr/XF7lmKwU/b1hrp52xuim03uwYMLhpiyYv8SD+XAJOoXmeiHvw/50v9VHPtTY3xHinJK8NVv29swBCjQeaHs3mFPyD5bL8wQvW631Oxc5/4ECF7m+W8W/q5nBsvCJ8RH2I0qDw/fHV8W9Qi/RwCpKhKYbQe+KepivMnxe/xUxrN33O49PM6N8UgvEd6kNFgCvt5oR80GjV7n71VXJikYvcneugvEB8WVH91t+ws/TzPjedH/y0/zKjWvCA6T/q5A2RFxSP3qH4fv+J8UQ/7s/Vn+dP1n0+JDweq/7qbdpB+/ucmGSTSw4xqzI/uPqTc3ThP0k2ovmNb8l7tPe6RejB8deDLwK4/8JKuztX6368hw6s4v9S168fv9/rfb9N/VvSfT+o/3xQfAtSYxW6/9N2WKz1QJosPNKpl+C8bX5o+Rvp5k6eBt2cdeYAeDlP0Ab1eD40+/ecb4pcFEdVXsbNa+r7LlVfqOFJ8qNE25/nhFOnnTB6qP9Fdcb6mB/1vkpfnFL8YiKgRapwXAkocOHXGKOmhRttc36RJ7XX7O6pq/tidVKX5eD3wI8VPdBNR7jlLpe/BfJXL21XfOlZ+uNEWC/vr9U1+1OzmD6vY+ZH+bP9l+QuAiBq22HlO+j7MnR4w98sPONpSXhBeL/08SZvqKewz8MNg7hrxg09EVHH+LH0v5q7oR+3SA462MPz9cIU3taMg/TxJi4pHfmT9W7HyZX4iMqfY7ZG+H3NXDMJzpYccbanwMunnSBqSl9isvjFL7KwSP+hERBsXO3+UvidzV/SjE+WHHG0yP3pjXHnmXtLPkaFSvc3/Vx+wheIHnIhoc8XOjdJ3Ze4mlCJPfNDR5haAS6WfH0NRfUW3ivtr8YNNRLS1Yvfn0ndm7sac1vUuzw/XiA872qhwtc3f+1cVp7X6ym7Sh5qIaFuK3Yul700RXhAukB94tGH6MblO+nkxWKpSmKyH/0rxA01EtO19V/ruFOEF0Q3SA482WgBK0YHSz4taqb4Ruyi+5E9EdnaC9B0qwvOjkvTAow2GfxDNk35O1ErNbdldf9Z/twGHmIio9nrcunyxta3ySuHR0kOPNlgA/Ogb0s+JWqh7995LH6C54geYiGiwzXEa6o3W/uqgIGyWHnq0Pj9adVD51vdLPye2leobUVD8ih8R2d68vXeVvk/FFIPwJfHhR8mX/6dLPxe2laqMdFXsPiV+cImIhlLsLJa+T0Xp4dMpPfxILwBt0ZeknwvbQvWNfq8+OPeLH1wioiHn9ErfqaI8PzxLevhRuHr/8s27Sz8XtkZ1t+ysD8xd8oeWiCiFYue30veqKC+IPis/ABs8P7xd+nmwNUo1bZe8ZKb4gSUiSi3nB9J3q6jkNefFB2CD5/nhFOnnwdbow3Ku/GElIkoz52Tpu1Wc/gz0Sekh2Mh5QccE6efAluhDcojibXyJqN5q1NcA2JAeQjdKD8FGTX/2v3TSpPbtpZ8Dm1P9Xf/YWSR+UImI0q6vMEL6jhWnB9EZ0oOwYfOjW6Uf/81RqmmYHv4d4oeUiCjtYvcl6TvWCJ7f+UnxQdiwhedKP/6boyrOv4gfUiKiTHL+JH3HGmH9WwOvkB+GjVjn8dKP/6YMvMyv85r8ISUiyqRLpO9ZY0R9VhoAABJrSURBVOgF4F75Ydh4jS9NN/J1qPXw/y8DDigRUUYVviJ9zxpDLwAXSw/DhsuPVpn4A4Cqt/BJFbv98geUiCijZjePk75rjeEF0efFB2KD5QXhQunHfWPVF/zhHf6IqJ6LnVVq/tidpO9bY3jljg8Ug7Bfeig2UnoBmCH9uG9MVZqPFz+cRETZNkv6rjVO8hmp9FBsqPzwWunHfGPJm2MYcDiJiLKMHwDcWDKQxIdiQxVeIP2Yb0jFzlEGHEwiooxrNvK3r0Qlb0krPxQbJ6+t4/vSj/mGVOz+j/zBJCLKuFlOs/R9a5wD/K49+TmAHCt1GPNGFKqn4IkfSiKizHOekL5vjeUF0TzxwdggJV9xkX6836IPxhXyB5OIKPN+LX3fGksPpkukB2PD5EfHST/eCdXdtIPeil8w4GASEWVb7Hxd+s41Vmsp+oz4YGyYOo6RfrwT+lAcK34oiYjyaHbLKOk711jV9wUIotflh2P9N6HU+TnpxzuhN+IbxQ8lEVH2Gffia8bxgvB30sOxETJhAVDdLTurirPCgINJRJRtsXul9J1rvGJbxwnSw7ERMmIB6CkcJn4oiYjyqNf9vPSda7yx5fbhvD1wgywAFfdc8UNJRJR9a1Tf6PdK37lW8PyoQ3pA1ntGLACxc68BB5OIKOvukL5vreEF4UnSA7Lek14A1Pw9h+sFYLUBB5OIKOu+I3nfWmXclJm7en64VHpI1nPiC0BP86EGHEoiouzrKewjed9ahzcHqvMFoOL8i/ihJCLKvrmSd62VWksdH5cekvWcAQvAjw04mERE2Ra7Z0netdbygnCB9KCs1+QXAPdW8YNJRJR18cgDJO9aa3l+OEV6UNZr8guA84T4wSQiyrLYeUzynrXaxHLXbsUgXCI9LOsxyQVA9Xk7qthdJ344iYiy7Rype7YuFP3oUulhWY+JLgDxyD0MOJhERNnWUxgrdc/WhYlndjnFIFwtPTDrLdEFYHbLKPGDSUSUZbEzR+qOrSueH/239MCst2S/BeDsJ344iYiyLHamSN2xdaU1iA4oBmG/9NCsp4S/BfBx8cNJRJRVyc849TQ7Unds3eFtgutoAehxjxQ/oEREmeXcLnW/1qViKRpd9KNV0oOzXhJdAHqbj5Y/oEREGdXjnCJ1v9YtPbiukh6c9RILABFRBsXOKjXLeb/U/Vq3xpVn7uUF0evSw7MeYgEgIsqg2P2D1N1a94p+9O/Sw7MeYgEgIsqi5uOl7ta6N7bcvhPvEcACQERkXLGzRHW37Cx1tzaECUHXQUU/Wic9RG2OBYCIKOVi90qpe7WheH50jfQQtTkWACKitGsZL3WvNpT9yzfvrgfZc9KD1NZYAIiIUm221J3akIp+xyFeEK2VHqY2xgJARJRmztek7tSGxW8FsAAQEYmW/PDfvL13lbpTG1e5vJ0eaDOlB6ptsQAQEaVU7FwudZ82vAP96XsX+XkAFgAiorxL3vinz/2Q1H0KzZvWuV8xCJdID1ZbYgEgIkqlm6TuUmzA86ND9RKwUnq42hALABFRCsXOp6XuUmzEa4u+pJeAfukBa3osAEREQyx25kjdo9iMYik6XXrAmh4LABHREIvdL0jdo9gCzw9P5eWCWQCIiLLJWaBU03ZS9yi2wvM7v1wMwtXSw9bEWACIiIbUCVJ3KLZRsRQe6/nhCumBa1osAEREg835M5/9W6I4tWu8F0SPSw9dk2IBICIabM4Xpe5PDMLEctduXhD+QXrwmhILABHRIIqdOXz2byU1rBiEvueHa6QHsHQsAEREg6jPPVjq7kQKJk4N9y/64WzpIcwCQERkUbF7g9S9iVSpYV4QnuQF0SvSw5gFgIjI9JwVanbLKKl7ExnwghkjikH4s0b7dUEWACKiGoqdaVJ3JjLmTe0oFP3wx14QLZceziwARERGNU/1eTtK3ZnIyfgzbhmpB+Qlehl4UXpIswAQEYm3RvUVJkjdlxAwaVL79sW26HAvCK8r+tEb0gObBYCISCKnLHVXwgDV1xBoi77kBdF/6oVgofTwZgEgIsqlWXzpH2+TfJtg/dsOX1H0o1uLfviYba8twAJARLSlnBdVT7MjdU/CIt7kvh1bS50f8Urh0Xoh+KIespO9to7ve340TS8JF+qu1v98jTFN69xP6mPFAkBEhrdW9bpHSN2RQN1iASAis3POkL4ngbrEAkBExha7V0rfkUDdYgEgIjNzfsUb/QAZYgEgIgO7SXU37SB9PwJ1jQWAiIwqdq9X88fuJH03AnWPBYCIzMn5sVJNw6TvRaAhsAAQkQGtUb3uN6TvQ6ChsAAQkXALVU/zQdJ3IdBwWACISKTY7Vexc42av+dw6XsQaEgsAESUe7H7sKoUDpe+/4CGxgJARDn2jB78k/kVP8AALABElHmx86T+87uqu2Vn6TsPwHosAESUSbGzUlWcdv3Px6j2pu2l7zoAG2EBIKLUip3nqi/kU3FOVncX3id9vwHYAhYAIhpkz+ph363//E/956mqr+Wj0vcZgBqwAFhQ7CzWn1FdSJRv7rkqLkytDvfY/ar+50mqxz1S9TTvr/pG7CJ9dwEYIhYAC4qdx6WfJwCAOsMCYEEsAACAtLEAWBALAAAgbSwAFsQCAABIGwuABbEAAADSxgJgQSwAAIC0sQBYEAsAACBtLAAWxAIAAEgbC4AFsQAAANLGAmBBLAAAgLSxAFgQCwAAIG0sABbEAgAASBsLgAWxAAAA0sYCYEEsAACAtLEAWBALAAAgbSwAFsQCAABIGwuABbEAAADSxgJgQSwAAIC0sQBYEAsAACBtLAAWxAIAAEgbC4AFsQAAANLGAmBBLAAAgLSxAFgQCwAAIG0sABbEAgAASBsLgAWxAAAA0sYCYEEsAACAtLEAWBALAAAgbSwAFsQCAABIGwuABbEAAADSxgJgQSwAAIC0sQBYEAsAACBtLAA25Dyh7i68jwyuZ8xu0mcZAGrCAkCUQrH7gPRZBoCasAAQpRALAADbsAAQpRALAADbsAAQpRALAADbsAAQpRALAADbsAAQpRALAADbsAAQpRALAADbsAAQpRALAADbsAAQpRALAADbsAAQpRALAADbsAAQpRALAADbsAAQpRALAADbsAAQpRALAADbsAAQpRALAADbsAAQpRALAADbsAAQpRALAADbsAAQpRALAADbsAAQpRALAADbsAAQpRALAADbsABQpvWNUWr+UUo9/GWlHvumUo9O1v/8RaXu/5RSvfvI//elFQsAANuwAFDqLficUs9fo9Sy+UqpdWqz1q1Uaum9Sj1zgVLzDpL/7x5KLAAAbKN6CoeJX55UB7Xoz/D/VQ/9BZsf+Fu0TqnFf9LLw7EG/F0GUezMkT7LAFATVXFaxS9PsrsFRyv15v2DHPyb8MrNSs0dL//3qq1Z0mcZAGqi4pEfMeDyJCsrKPVUWan+NekN/7eseVWphSca8Hfc5u6QPssAUBPVVxhhwOVJtpX8AN/LN6Y/+DfUv1apJ335v+u2FLu/lz7LAFATNW/vXcUvT7KsFqVeDbMd/ht66mwD/s5by7la+iwDQM1U7CyRv0DJml74RX7Dv6pfqce+Jf/33lKxe7b0OQaAmukLbJb4BUp29Og3ch7+661bptSDh8r//TdXj3uS9DkGgJrpC+xa8QuUzG/uAUqtWSKzACTefECp3lHyH4dNVviE9DkGgJrpC+y78hcoGd9LN8gN/7c8Gch/HDYudvvV3YX3SZ9jAKiZ6nWPEL9Eyezu/0Q2v+5Xq9UvDby8sPTHY8Ni5zHpMwwAg6LmtuyuL7I14hcpmVvuP/i3BU+cIf/xeFvO76TPMAAMmr7E7pK/SMnIkt/5T16YxxSvx/Ifk7flfE36/ALAoOmLzJe/SMnIHv6S9MjfSL9ScyfIf1ySku//z3FHSp9fABg01dO8v/hlSma26Erpif9OprwuAG8CBMB2SjUN05/NPC1+oZJ5Lb1bety/0wvXyn9cBjpH+uwCwJAlr2ZmwIVKprVqkfS4f6cld8h/XJJ6Cp70uQWAIau+MVDsrBa/VMmgCmb8+t/Gls2X/9jw5X8A9SR5VzPxi5XMqW9f6VG/aSuflP/Y8PK/AOqJ6mk+VPxiJXPq+4j0qN+0FY/Lflxi92XV3bKz9HkFgNSs/2HAWHzwkCEl3wJYKz3u3yl5XwDRj4tzgfRZBYDUqR73U/KDh4xp1bPS4/6dXpsh+TF5XcUtH5Q+pwCQCRU7t4gPHjKjJXdKj/t3WnSV3McjLkyVPp8AkBlVGbkvvxFA1Z67THrcv9MjXxP6eDhP8L1/AHVPX3aXig8fku+h46XH/dslv5Y4Z6zQx8P5ovS5BIDMJZ/p6AtvvvgAIuFalFr1nPTY/1+Lb5P5OMTOH5MfkpU+lwCQC335j9cX3yr5IUSiPXe59Nj/X49+XeBj4LymKiNd6fMIALlSvFMg3TdOqXVvSo9+pZY/qqpfkcj77x+7X5A+hwCQO9XetL2+BGeIDyGSzYQfBnzkZIm/+7XSZxAAxKieMbvx8wANXt+HlVrxF7nhv/iP+f+dY7ei+kbsIn3+AECUmt0ySi8BL4gPIpJrwdFK9a/Kf/ivflmpuRNy/vs6T6jZ++wtfe4AwAiqp/kgfTkuFx9EJNdfvqcncn9+w3/dMr14HJv33/NV1dfyUenzBgBGUb3uEYoloLF76ux8loB1K5Ra+JW8/37LVex8WvqcAYCRkgtSxe4b4oOI5PrL6XoHWJ3d8F/z2sCLEOX5d4rdN1WlcLj0+QIAo6k+92CVvDGK9CAiuZIvza98Jv3h/0afUvMOyvfvEjtL9PD/hPS5AgArqHjkx1XFeVF8EJFcffsOvDnPupVDH/xrXlXqyUDl/rv+sfuy6il40ucJAKxS/e2A2H1QfBCRbHM9pZ6/euAn9mu14nGlnv6BXiY+mv9/d+w+nLz5lfQ5AgArqfl7DlexM118CJF8vfso9fAXlVr0H0otvVcvBC9uNO3XKbXyaaWW3K7UMxcpteCzcv+tsdup5rbsLn1+AMBqA68Y6FygL9V14kOIzCt5Bz+Jz/A3Vez26z/PVappO+lzAwB1Q8WFv1Wx85z4JU+0yaovZnWM9DkBgLqk+kZ8gG8JkHHFbpfqK4yQPh8AUNeS905Xve439CKwWPzipwbPWao7WfpMAEBDST7j0kvAb+WHADVmTruqjHSlzwEANCzV03zowK9cSQ8EapAe0YvnZ6Sf9wAATc1y3q2XgNLAq66JDwiqx5JvOfU4Z6r5Y3eSfr4DADaiF4H3q4pzoW6F+MCg+ih2l+nn04/VvXvvJf38BgBsheop7KM/Y7tOX+BrxAcI2VnsrNJ/XqHilg9KP58BADVSc0a1VD97422Gadt7feA5ww/4AYD1ks/i9MV+ET8jQJstdp/SfV/ds8d7pJ+vAICUVd9bIHkNgYp7v/jAIfmSl+6NndtUXJik+rwdpZ+fAIAcqD73YD0AfqMHwErxQUQ5l7xsr3Ohfg58SPp5CAAQou4uvG/9Kwves/7NXAwYUJR6yU/zx+4N+p+P4Vf5AABvoyqF0fozw3/X/Vl8YFEKQ99ZVX1r3krzicm3f6SfXwAACwwsA+53+MqAZQ383n6oetyTVN/o90o/jwAAFlM9zY4eLKfqZeAWVf01MQMGHW049B/QQ/9SPfSP5Mv7AIBMqPam7VVPwVNxYer6rw6sEx+ADZfz4sCb8RQm8/v6AAARqm/EB1Sl+bj1Lzh0PwtBJgP/eb1s3aiSb8nMbh6XvCW09OMOAMDbVN+PoMf5ez2wLtcDaza/ZjiIknd3jN2f676qB/6HpR9TAABqlnxPWvU6E/UicJoeaNer6tvJ8kOF/5vzhP54/F7/s68/RkclX1GRfswAAMiE6hmzm+otfHL9Dxb+VA+/Wfqf35Afxpn2uv47VvTA/6/q2+r2ukeoeOQe0o8FAACiku9rq9ktowYGY3UxuEwPy0gPzoX6n1cbMMC3Xuy+qf+bFwz87r1zlUq+Z5/8ZD4/qAcAQO2qy0FfYYQerEU9VI9Vvc639FJwfvUtj6vD1p09sCi4L+s/16Y/2J3F6xeRe6q/Chk71+h/P0fFhW+rSvPx1d+K4Ev3AADISl4AZ+CtkAujVTzygOqA7mk+VP/74Xp4/0P1z03V03xQ9afsk//vkt9umLf3rtJ/FwAAAAAAAAAAAAAAAAAAAAAAAAAAAAAAAAAAAAAAAAAAAAAAAAAAAAAAAAAAAAAAAAAAAAAAAAAAAAAAAAAAAAAAAAAAAAAAAAAAAAAAAAAAABjv/wPDNEOIFqosxgAAAABJRU5ErkJggg==;" parent="1" vertex="1">
          <mxGeometry x="202" y="319" width="80" height="80" as="geometry" />
        </mxCell>
        <mxCell id="fl53kbqJCaCXRiY0qN3b-3" style="edgeStyle=orthogonalEdgeStyle;rounded=0;orthogonalLoop=1;jettySize=auto;html=1;enumerate=1;enumerateValue=2;startArrow=classic;startFill=1;" parent="1" edge="1">
          <mxGeometry relative="1" as="geometry">
            <mxPoint x="280" y="359" as="sourcePoint" />
            <mxPoint x="362" y="359.25" as="targetPoint" />
          </mxGeometry>
        </mxCell>
        <mxCell id="fl53kbqJCaCXRiY0qN3b-4" value="Python" style="text;html=1;strokeColor=none;fillColor=none;align=center;verticalAlign=middle;whiteSpace=wrap;rounded=0;" parent="1" vertex="1">
          <mxGeometry x="202" y="400" width="80" height="40" as="geometry" />
        </mxCell>
        <mxCell id="kTufbKCAyh8W8EYSyon_-2" value="" style="rounded=0;whiteSpace=wrap;html=1;dashed=1;fillColor=none;strokeColor=#FFFFFF;" parent="1" vertex="1">
          <mxGeometry y="40" width="680" height="480" as="geometry" />
        </mxCell>
      </root>
    </mxGraphModel>
  </diagram>
</mxfile>
